
        <svg xmlns="http://www.w3.org/2000/svg" xmlns:xlink="http://www.w3.org/1999/xlink" version="1.1" width="3171.5342788272883" height="760.1322944111216" viewBox="0 0 3171.5342788272883 760.1322944111216">
			
			<g transform="scale(8.576713941364426) translate(10, 10)">
				<defs id="SvgjsDefs4755"/><g id="SvgjsG4756" featureKey="Df7oLJ-0" transform="matrix(0.7223941628311797,0,0,0.7223941628311797,-1.8059854070779493,-1.8059854070779493)" fill="#fff"><g xmlns="http://www.w3.org/2000/svg"><path d="M63.6,2.5H36.4c-1.6,0-3,1.3-3,3v27.9H5.5c-1.6,0-3,1.3-3,3v27.2c0,1.6,1.3,3,3,3h27.9v27.9c0,1.6,1.3,3,3,3h27.2     c1.6,0,3-1.3,3-3V66.6h27.9c1.6,0,3-1.3,3-3V36.4c0-1.6-1.3-3-3-3H66.6V5.5C66.6,3.8,65.3,2.5,63.6,2.5z"/></g></g><g id="SvgjsG4757" featureKey="Ua4uQk-0" transform="matrix(2.627814584231235,0,0,2.627814584231235,87.94887642177886,0.7586749102429824)" fill="#fff"><path d="M12.36 20 l-0.98 -2.32 l-6.58 0 l-0.98 2.32 l-3.42 0 l6.22 -14 l2.94 0 l6.22 14 l-3.42 0 z M5.92 15.059999999999999 l4.36 0 l-2.18 -5.16 z M22.36 6 c3.14 0 5.22 1.9 5.22 4.82 c0 2.88 -2.08 4.6 -5.22 4.6 l-1.76 0 l0 4.58 l-3.22 0 l0 -14 l4.98 0 z M22.16 12.68 c1.3 0 2.2 -0.46 2.2 -1.86 c0 -1.38 -0.9 -1.86 -2.2 -1.86 l-1.56 0 l0 3.72 l1.56 0 z M36.46 5.800000000000001 c3.96 0 7.28 2.94 7.28 7.2 s-3.32 7.2 -7.28 7.2 s-7.28 -2.94 -7.28 -7.2 s3.32 -7.2 7.28 -7.2 z M36.46 17.18 c2.26 0 3.94 -1.76 3.94 -4.18 s-1.68 -4.18 -3.94 -4.18 s-3.92 1.76 -3.92 4.18 s1.66 4.18 3.92 4.18 z M54.86 8.94 l-5.68 0 l0 2.66 l4.66 0 l0 2.74 l-4.66 0 l0 5.66 l-3.32 0 l0 -14 l9 0 l0 2.94 z M66.52 20 l-0.98 -2.32 l-6.58 0 l-0.98 2.32 l-3.42 0 l6.22 -14 l2.94 0 l6.22 14 l-3.42 0 z M60.08 15.059999999999999 l4.36 0 l-2.18 -5.16 z M79.34 20 l-2.86 -4.58 l-1.72 0 l0 4.58 l-3.22 0 l0 -14 l4.98 0 c3.14 0 5.22 1.9 5.22 4.82 c0 1.86 -0.88 3.26 -2.36 3.98 l3.36 5.2 l-3.4 0 z M74.76 8.96 l0 3.72 l1.56 0 c1.3 0 2.2 -0.46 2.2 -1.86 c0 -1.38 -0.9 -1.86 -2.2 -1.86 l-1.56 0 z M99.64 6 l0 14 l-3.32 0 l0 -6.76 l-2.86 6.76 l-2.78 0 l-2.82 -6.72 l0 6.72 l-3.32 0 l0 -14 l3.18 0 l4.38 9.72 l4.36 -9.72 l3.18 0 z"/></g>
			</g>
		</svg>
	